<svg width="120" height="121" viewBox="0 0 120 121" fill="none" xmlns="http://www.w3.org/2000/svg">
<g clip-path="url(#clip0_0_6266)">
<path d="M71.239 105.67C71.7824 105.536 72.2653 105.54 72.6878 105.683C73.1025 105.827 73.4538 106.082 73.7419 106.447C74.03 106.813 74.2568 107.263 74.4223 107.799L73.3357 108.401C73.2299 108.073 73.0997 107.764 72.9452 107.472C72.783 107.183 72.5838 106.96 72.3476 106.805C72.1133 106.657 71.8292 106.624 71.4954 106.707C71.1539 106.791 70.9208 106.948 70.7961 107.176C70.6656 107.414 70.6445 107.712 70.7328 108.069C70.8385 108.496 71.02 108.814 71.2775 109.022C71.5368 109.238 71.8466 109.441 72.2069 109.632L74.1361 110.637C74.5138 110.832 74.8158 111.071 75.0421 111.352C75.2702 111.642 75.4429 112.023 75.56 112.497C75.7309 113.188 75.6655 113.772 75.3637 114.251C75.062 114.729 74.5695 115.053 73.8865 115.222C73.5139 115.314 73.1754 115.344 72.8709 115.312C72.5607 115.29 72.2874 115.201 72.0512 115.046C71.8072 114.892 71.5925 114.673 71.407 114.389C71.2156 114.115 71.0497 113.778 70.9091 113.376L71.9519 112.797C72.0521 113.101 72.1687 113.373 72.302 113.612C72.4371 113.859 72.6132 114.037 72.8301 114.149C73.0412 114.269 73.3098 114.289 73.6358 114.209C73.9618 114.128 74.1959 113.975 74.338 113.751C74.4743 113.536 74.5002 113.258 74.4157 112.916C74.3446 112.629 74.2395 112.404 74.1002 112.24C73.9532 112.079 73.7471 111.928 73.4817 111.788L71.5408 110.785C71.1069 110.563 70.7004 110.268 70.3211 109.901C69.9438 109.541 69.6822 109.066 69.5362 108.476C69.421 108.011 69.4181 107.583 69.5277 107.193C69.6391 106.812 69.8436 106.489 70.1409 106.226C70.4306 105.965 70.7966 105.78 71.239 105.67Z" fill="#B68C2D"/>
<path d="M65.8262 106.685C66.5251 106.598 67.0784 106.67 67.4862 106.902C67.894 107.133 68.1965 107.491 68.3938 107.975C68.592 108.466 68.7331 109.049 68.817 109.724L69.6126 116.121L68.3262 116.281L67.5231 109.825C67.4718 109.412 67.3971 109.038 67.299 108.703C67.2009 108.369 67.0482 108.114 66.8409 107.938C66.6256 107.763 66.3313 107.699 65.9581 107.745C65.5769 107.793 65.3074 107.927 65.1494 108.148C64.9914 108.369 64.9059 108.654 64.8928 109.003C64.8797 109.351 64.8988 109.732 64.9502 110.145L65.7532 116.601L64.4786 116.759L63.683 110.363C63.599 109.688 63.593 109.088 63.6647 108.563C63.7375 108.046 63.9432 107.625 64.2819 107.301C64.6126 106.977 65.1274 106.772 65.8262 106.685Z" fill="#B68C2D"/>
<path d="M62.2221 107.188L62.0643 116.91L61.1401 116.895L58.4844 110.393L58.3796 116.85L57.2514 116.832L57.4092 107.11L58.2734 107.124L60.9621 113.807L61.0699 107.17L62.2221 107.188Z" fill="#B68C2D"/>
<path d="M53.8756 106.651C54.4315 106.72 54.8814 106.896 55.2252 107.181C55.5611 107.464 55.7983 107.828 55.9368 108.273C56.0754 108.717 56.1262 109.219 56.0892 109.779L54.8581 109.954C54.8765 109.609 54.8657 109.273 54.8255 108.946C54.7774 108.617 54.6709 108.338 54.5058 108.108C54.3398 107.886 54.086 107.754 53.7445 107.711C53.395 107.668 53.1212 107.731 52.9229 107.9C52.7156 108.076 52.5894 108.347 52.5443 108.712C52.4902 109.149 52.5463 109.51 52.7124 109.797C52.8776 110.092 53.0944 110.393 53.3628 110.7L54.8061 112.33C55.0894 112.647 55.2864 112.978 55.397 113.322C55.5067 113.674 55.5315 114.093 55.4716 114.577C55.3842 115.284 55.1139 115.807 54.6607 116.146C54.2076 116.485 53.6316 116.611 52.9327 116.525C52.5514 116.478 52.2243 116.385 51.9511 116.246C51.6691 116.115 51.4455 115.934 51.2804 115.704C51.1074 115.473 50.985 115.192 50.9131 114.86C50.8322 114.536 50.798 114.16 50.8103 113.735L51.9923 113.566C51.9768 113.887 51.9886 114.183 52.0277 114.454C52.0658 114.733 52.1663 114.963 52.3293 115.144C52.4834 115.333 52.7273 115.447 53.0608 115.489C53.3944 115.53 53.6678 115.471 53.881 115.312C54.0852 115.16 54.209 114.909 54.2522 114.559C54.2886 114.266 54.2709 114.017 54.1991 113.815C54.1195 113.612 53.9807 113.397 53.7829 113.171L52.3276 111.54C52.0016 111.177 51.7271 110.756 51.5041 110.277C51.2801 109.805 51.2055 109.268 51.2801 108.664C51.3391 108.188 51.4894 107.787 51.7312 107.462C51.972 107.145 52.2784 106.917 52.6504 106.778C53.0145 106.637 53.4229 106.595 53.8756 106.651Z" fill="#B68C2D"/>
<path d="M50.8344 106.287L48.6257 115.756L44.9551 114.899L45.1842 113.917L47.5338 114.465L48.2646 111.333L46.3591 110.888L46.5773 109.953L48.4827 110.397L49.2926 106.925L46.9195 106.372L47.1404 105.425L50.8344 106.287Z" fill="#B68C2D"/>
<path d="M45.3164 104.823L42.4878 113.066L44.0432 113.6L43.716 114.554L39.3675 113.062L39.6947 112.108L41.2048 112.626L44.0334 104.383L45.3164 104.823Z" fill="#B68C2D"/>
<path d="M37.5456 101.349C38.0393 101.614 38.3951 101.941 38.613 102.33C38.8239 102.716 38.9137 103.141 38.8825 103.605C38.8513 104.07 38.7173 104.557 38.4808 105.065L37.2698 104.784C37.4113 104.469 37.5224 104.152 37.6032 103.832C37.677 103.508 37.6784 103.209 37.6075 102.935C37.5328 102.668 37.3438 102.453 37.0406 102.29C36.7303 102.124 36.4522 102.084 36.2063 102.17C35.9495 102.259 35.7341 102.466 35.5601 102.79C35.3521 103.178 35.2738 103.536 35.3253 103.863C35.3729 104.197 35.4665 104.556 35.6058 104.94L36.3635 106.981C36.5132 107.379 36.5775 107.759 36.5564 108.12C36.5315 108.488 36.4037 108.887 36.1729 109.317C35.8362 109.945 35.3954 110.335 34.8504 110.487C34.3054 110.64 33.7226 110.55 33.102 110.217C32.7635 110.035 32.4919 109.831 32.2872 109.603C32.0717 109.378 31.9285 109.129 31.8576 108.855C31.7797 108.577 31.767 108.27 31.8196 107.935C31.8613 107.603 31.9648 107.241 32.13 106.849L33.293 107.118C33.1629 107.412 33.0671 107.692 33.0058 107.959C32.9406 108.232 32.9513 108.483 33.0378 108.711C33.1136 108.943 33.2995 109.138 33.5957 109.297C33.8919 109.455 34.1681 109.499 34.4243 109.428C34.6697 109.36 34.8757 109.17 35.0421 108.86C35.1821 108.599 35.2551 108.361 35.2613 108.147C35.2604 107.928 35.2085 107.678 35.1056 107.396L34.3374 105.349C34.1643 104.893 34.0603 104.401 34.0253 103.874C33.9865 103.354 34.1109 102.826 34.3984 102.29C34.6254 101.867 34.9102 101.547 35.253 101.331C35.5919 101.123 35.96 101.021 36.3573 101.025C36.7476 101.025 37.1437 101.133 37.5456 101.349Z" fill="#B68C2D"/>
<path d="M32.8528 98.4763C33.3909 98.8569 33.7465 99.2659 33.9195 99.7033C34.0925 100.141 34.111 100.602 33.9749 101.086C33.8343 101.578 33.5783 102.086 33.2069 102.611L31.0696 105.632C30.6982 106.157 30.3114 106.558 29.909 106.835C29.4955 107.113 29.0616 107.24 28.6074 107.214C28.1419 107.19 27.6402 106.987 27.1021 106.607C26.564 106.226 26.2094 105.823 26.0383 105.396C25.8672 104.97 25.8451 104.521 25.9718 104.05C26.092 103.574 26.3378 103.073 26.7091 102.548L28.8534 99.5166C29.2201 98.9982 29.6126 98.5964 30.0308 98.3114C30.4424 98.0217 30.8823 97.88 31.3504 97.8862C31.8139 97.899 32.3147 98.0957 32.8528 98.4763ZM32.2332 99.3524C31.9379 99.1435 31.673 99.0447 31.4386 99.0561C31.1994 99.074 30.9771 99.1727 30.7714 99.3521C30.5611 99.5381 30.3515 99.7787 30.1426 100.074L27.6711 103.568C27.4622 103.864 27.3098 104.135 27.2137 104.382C27.1131 104.636 27.0987 104.872 27.1708 105.09C27.2381 105.315 27.4195 105.532 27.7148 105.74C28.0101 105.949 28.2782 106.05 28.5193 106.044C28.7491 106.039 28.9668 105.947 29.1725 105.767C29.3735 105.595 29.5785 105.36 29.7873 105.065L32.2589 101.571C32.4678 101.276 32.6248 100.998 32.7302 100.738C32.8308 100.484 32.8498 100.241 32.787 100.01C32.7131 99.7804 32.5285 99.5612 32.2332 99.3524Z" fill="#B68C2D"/>
<path d="M29.9589 96.3914L23.4445 103.586L21.9966 102.275C21.517 101.841 21.1792 101.417 20.9833 101.002C20.782 100.594 20.736 100.18 20.8454 99.7621C20.9434 99.3444 21.1988 98.9076 21.6117 98.4516C21.8637 98.1733 22.1238 97.9454 22.3921 97.7681C22.6551 97.5967 22.9241 97.49 23.1992 97.4481C23.4688 97.4121 23.7424 97.455 24.02 97.577L26.2637 93.0457L27.2319 93.9224L25.1173 98.1503L25.899 98.858L28.9552 95.4826L29.9589 96.3914ZM25.2476 99.5775L24.8656 99.2317C24.5814 98.9743 24.3183 98.8008 24.0763 98.711C23.8343 98.6212 23.5941 98.6246 23.3557 98.7213C23.1173 98.818 22.8587 99.0203 22.5799 99.3282C22.1992 99.7487 22.0027 100.12 21.9905 100.443C21.9729 100.772 22.1921 101.143 22.6481 101.556L23.0922 101.958L25.2476 99.5775Z" fill="#B68C2D"/>
<path d="M25.6231 92.3118L18.3141 98.7238L15.8284 95.8905L16.5864 95.2255L18.1775 97.0392L20.5958 94.9177L19.3055 93.4469L20.0274 92.8136L21.3177 94.2844L23.9977 91.9333L22.3907 90.1015L23.1216 89.4603L25.6231 92.3118Z" fill="#B68C2D"/>
<path d="M22.6152 88.8304L14.6331 94.3822L14.1053 93.6234L17.8306 87.6694L12.5289 91.3569L11.8846 90.4306L19.8667 84.8787L20.3602 85.5883L16.5077 91.6747L21.9572 87.8843L22.6152 88.8304Z" fill="#B68C2D"/>
<path d="M18.753 82.8681L11.0764 86.9929L11.8547 88.4416L10.9665 88.9188L8.79049 84.869L9.6787 84.3917L10.4343 85.7981L18.111 81.6732L18.753 82.8681Z" fill="#B68C2D"/>
<path d="M16.2148 77.2323C16.4565 77.8424 16.5305 78.3768 16.4368 78.8357C16.3431 79.2946 16.1078 79.6891 15.7307 80.0192C15.3462 80.3523 14.8563 80.6367 14.2611 80.8725L10.835 82.2297C10.2398 82.4654 9.69923 82.5892 9.21326 82.6009C8.7169 82.6082 8.28639 82.4775 7.92173 82.2088C7.54668 81.9356 7.23831 81.4939 6.99664 80.8839C6.75497 80.2738 6.67872 79.7445 6.7679 79.296C6.85707 78.8475 7.08275 78.4612 7.44494 78.137C7.80418 77.8053 8.2814 77.5216 8.8766 77.2858L12.3139 75.9242C12.9016 75.6914 13.4474 75.5698 13.9512 75.5596C14.4521 75.542 14.896 75.6631 15.283 75.923C15.6625 76.1858 15.9731 76.6222 16.2148 77.2323ZM15.2215 77.6257C15.0889 77.2909 14.9218 77.0645 14.7201 76.9464C14.5109 76.8313 14.2718 76.7926 14.0027 76.8304C13.7262 76.871 13.4205 76.9577 13.0857 77.0903L9.12389 78.6597C8.78909 78.7923 8.51444 78.9356 8.29994 79.0894C8.078 79.2462 7.93768 79.4352 7.87899 79.6564C7.81285 79.8806 7.8461 80.16 7.97872 80.4948C8.11135 80.8296 8.27998 81.0598 8.48464 81.1853C8.6789 81.3063 8.91058 81.348 9.17968 81.3102C9.44134 81.2754 9.73957 81.1917 10.0744 81.0591L14.0362 79.4897C14.371 79.3571 14.653 79.2109 14.8824 79.0512C15.1044 78.8944 15.2521 78.7025 15.3257 78.4754C15.3889 78.2437 15.3542 77.9605 15.2215 77.6257Z" fill="#B68C2D"/>
<path d="M14.2283 71.5021L4.69979 73.3494L4.32803 71.432C4.20487 70.7967 4.18927 70.2546 4.28122 69.8055C4.36532 69.3579 4.57659 68.9996 4.91501 68.7305C5.24407 68.4552 5.71054 68.2589 6.3144 68.1419C6.683 68.0704 7.02782 68.0442 7.34888 68.0634C7.6621 68.084 7.9413 68.1601 8.1865 68.2916C8.42385 68.4246 8.61695 68.6231 8.7658 68.8872L13.2795 66.6084L13.5281 67.8906L9.29972 70.0042L9.50042 71.0394L13.9706 70.1728L14.2283 71.5021ZM8.54757 71.2242L8.4495 70.7183C8.37652 70.3419 8.27017 70.0452 8.13044 69.8281C7.99072 69.6111 7.7965 69.4698 7.54778 69.4041C7.29907 69.3384 6.97081 69.345 6.563 69.4241C6.00619 69.5321 5.62599 69.7116 5.42241 69.9626C5.21098 70.2151 5.16381 70.6434 5.28089 71.2472L5.39492 71.8354L8.54757 71.2242Z" fill="#B68C2D"/>
<path d="M13.1591 65.6307L3.47021 66.4443L3.15482 62.6884L4.15959 62.604L4.36149 65.0083L7.56719 64.7391L7.40347 62.7894L8.3604 62.709L8.52412 64.6587L12.0767 64.3604L11.8728 61.9322L12.8417 61.8509L13.1591 65.6307Z" fill="#B68C2D"/>
<path d="M12.9745 58.7265C12.9629 59.2865 12.8333 59.7521 12.5855 60.1232C12.3379 60.4863 12.0001 60.7595 11.5721 60.9428C11.1441 61.1261 10.6498 61.2279 10.0891 61.2484L9.78974 60.0416C10.1343 60.0247 10.4674 59.9795 10.789 59.9061C11.1109 59.8247 11.3778 59.6901 11.5898 59.5024C11.7938 59.3145 11.8993 59.0485 11.9064 58.7045C11.9136 58.3525 11.823 58.0865 11.6347 57.9065C11.4384 57.7183 11.1563 57.6205 10.7883 57.6129C10.3482 57.6038 9.99412 57.6966 9.72598 57.8912C9.44983 58.0856 9.17262 58.332 8.89433 58.6304L7.42057 60.2329C7.13395 60.5472 6.82506 60.777 6.4939 60.9222C6.15474 61.0673 5.74113 61.1348 5.25308 61.1248C4.54102 61.1101 3.99317 60.8947 3.60953 60.4786C3.2259 60.0625 3.04133 59.5024 3.05584 58.7983C3.06375 58.4143 3.12267 58.0793 3.23262 57.7935C3.33472 57.4994 3.49176 57.2585 3.70374 57.0708C3.91588 56.875 4.18312 56.7245 4.50545 56.619C4.81996 56.5055 5.18964 56.433 5.6145 56.4018L5.9028 57.5603C5.58228 57.5777 5.28926 57.6197 5.02375 57.6863C4.75024 57.7527 4.53159 57.8762 4.36778 58.057C4.19614 58.2295 4.10686 58.4838 4.09994 58.8198C4.09302 59.1559 4.17959 59.4218 4.35965 59.6176C4.53187 59.8052 4.794 59.9027 5.14604 59.9099C5.44207 59.916 5.68708 59.8731 5.88107 59.781C6.07523 59.681 6.27463 59.521 6.47927 59.3011L7.95327 57.6866C8.28088 57.3251 8.67159 57.009 9.1254 56.7382C9.57121 56.4673 10.0981 56.338 10.7062 56.3506C11.1863 56.3605 11.6002 56.469 11.9481 56.6763C12.2881 56.8834 12.5464 57.1649 12.7232 57.5207C12.9001 57.8685 12.9839 58.2705 12.9745 58.7265Z" fill="#B68C2D"/>
<path d="M13.1535 54.594L4.50967 53.4852L4.30043 55.1163L3.30031 54.988L3.88528 50.428L4.88539 50.5563L4.68226 52.1398L13.3261 53.2486L13.1535 54.594Z" fill="#B68C2D"/>
<path d="M13.5458 51.6931L4.58941 47.4541L4.89034 46.185L14.7993 46.4069L14.5039 47.6528L12.0264 47.5204L11.5709 49.4416L13.8385 50.4589L13.5458 51.6931ZM10.6692 49.0433L11.0419 47.4714L6.60423 47.2555L10.6692 49.0433Z" fill="#B68C2D"/>
<path d="M15.9241 43.5256C15.6781 44.1854 15.3581 44.6426 14.9643 44.8972C14.5704 45.1517 14.1136 45.2547 13.5936 45.206C13.0662 45.1545 12.4839 45.01 11.8465 44.7723L5.80678 42.5201L6.25972 41.3054L12.3557 43.5786C12.7456 43.724 13.1116 43.8305 13.4535 43.8983C13.7955 43.966 14.0924 43.9486 14.3442 43.846C14.5987 43.736 14.7917 43.5048 14.9231 43.1523C15.0573 42.7924 15.0629 42.4913 14.9397 42.2489C14.8166 42.0066 14.6036 41.7991 14.3007 41.6263C13.9979 41.4536 13.6515 41.2946 13.2616 41.1492L7.16562 38.8761L7.61438 37.6726L13.6541 39.9248C14.2915 40.1624 14.8263 40.4345 15.2587 40.7409C15.6835 41.0445 15.9614 41.4214 16.0925 41.8717C16.2263 42.3145 16.1702 42.8658 15.9241 43.5256Z" fill="#B68C2D"/>
<path d="M17.1966 40.0652L8.599 35.5245L9.51274 33.7943C9.81545 33.2212 10.1437 32.7882 10.4974 32.4954C10.8441 32.1988 11.234 32.0518 11.6671 32.0542C12.0968 32.0459 12.5841 32.1856 13.129 32.4734C13.4616 32.649 13.7472 32.8451 13.9858 33.0616C14.2173 33.2744 14.3875 33.5091 14.4963 33.7656C14.5981 34.0185 14.6241 34.2947 14.5745 34.5943L19.5286 35.6496L18.9176 36.8066L14.2899 35.8015L13.7966 36.7355L17.8301 38.8657L17.1966 40.0652ZM12.9369 36.2815L13.1779 35.8251C13.3573 35.4854 13.4606 35.187 13.4878 34.9299C13.515 34.6727 13.4521 34.4404 13.2992 34.233C13.1464 34.0256 12.8859 33.8247 12.518 33.6303C12.0156 33.365 11.6061 33.2664 11.2896 33.3345C10.9659 33.3989 10.6603 33.7035 10.3725 34.2484L10.0922 34.7791L12.9369 36.2815Z" fill="#B68C2D"/>
<path d="M18.761 34.9652L12.5432 26.8811L13.2685 25.8364L21.8529 30.5116L21.1376 31.542L19.0037 30.2888L17.8572 31.9403L19.473 33.9397L18.761 34.9652ZM17.2406 31.184L18.1932 29.8118L14.309 27.5648L17.2406 31.184Z" fill="#B68C2D"/>
<path d="M23.2394 30.3774L15.9855 23.9031L16.6009 23.2135L23.2574 25.454L18.4393 21.1537L19.1907 20.3119L26.4446 26.7863L25.8691 27.4311L19.0544 25.0975L24.0067 29.5177L23.2394 30.3774Z" fill="#B68C2D"/>
<path d="M28.1095 25.1694L22.2706 18.6334L21.0373 19.7352L20.3617 18.9789L23.8097 15.8987L24.4853 16.6549L23.2879 17.7246L29.1268 24.2606L28.1095 25.1694Z" fill="#B68C2D"/>
<path d="M41.6394 16.6265C41.124 16.8506 40.6453 16.9274 40.2033 16.857C39.7686 16.7834 39.3781 16.5899 39.0317 16.2765C38.6854 15.9631 38.3854 15.5551 38.1319 15.0526L39.1066 14.2743C39.2663 14.5812 39.447 14.866 39.6487 15.1284C39.8577 15.3877 40.0922 15.5747 40.3521 15.6893C40.6088 15.7965 40.8955 15.7813 41.2121 15.6436C41.536 15.5028 41.7405 15.3088 41.8257 15.0617C41.915 14.804 41.886 14.5059 41.7388 14.1672C41.5627 13.7623 41.3299 13.4783 41.0402 13.3154C40.7473 13.1451 40.4065 12.9956 40.0179 12.867L37.9398 12.1947C37.5333 12.0651 37.1945 11.8798 36.9234 11.6387C36.6491 11.3903 36.4143 11.0416 36.219 10.5925C35.9341 9.93725 35.901 9.34763 36.1196 8.82363C36.3382 8.29963 36.7715 7.89678 37.4194 7.6151C37.7728 7.46145 38.1028 7.37486 38.4094 7.35534C38.7202 7.32525 39.0056 7.3675 39.2655 7.4821C39.5328 7.59349 39.782 7.77403 40.0131 8.0237C40.2484 8.26282 40.4693 8.56947 40.6757 8.94367L39.7404 9.69174C39.5903 9.40685 39.4293 9.15733 39.2574 8.94319C39.0823 8.72168 38.8781 8.57411 38.6447 8.50049C38.4155 8.4163 38.1463 8.44143 37.8371 8.57587C37.5279 8.71031 37.3217 8.90061 37.2187 9.14677C37.1198 9.38236 37.1407 9.66213 37.2816 9.98607C37.4 10.2585 37.5418 10.4638 37.707 10.6021C37.8795 10.7372 38.1089 10.8519 38.395 10.9464L40.4842 11.6138C40.9509 11.761 41.4027 11.9848 41.8396 12.285C42.2733 12.5779 42.6118 13.0041 42.8551 13.5636C43.0472 14.0054 43.1216 14.4282 43.0784 14.8322C43.032 15.2288 42.8836 15.5822 42.6333 15.8924C42.3903 16.1993 42.059 16.4441 41.6394 16.6265Z" fill="#B68C2D"/>
<path d="M46.8132 14.8339C46.1372 15.0316 45.5795 15.0488 45.1399 14.8855C44.7003 14.7223 44.3444 14.4178 44.0723 13.9721C43.798 13.5187 43.5654 12.9655 43.3745 12.3127L41.5653 6.12578L42.8096 5.76192L44.6356 12.0064C44.7524 12.4058 44.886 12.7628 45.0363 13.0774C45.1867 13.3919 45.3783 13.6194 45.6111 13.7597C45.8516 13.8978 46.1523 13.9141 46.5133 13.8086C46.882 13.7007 47.1266 13.525 47.2471 13.2813C47.3676 13.0376 47.4064 12.7428 47.3636 12.3968C47.3208 12.0508 47.241 11.6781 47.1242 11.2787L45.2982 5.03421L46.531 4.67372L48.3401 10.8606C48.5311 11.5135 48.6331 12.1048 48.6463 12.6345C48.6572 13.1566 48.5215 13.6049 48.2391 13.9792C47.9644 14.3514 47.4891 14.6363 46.8132 14.8339Z" fill="#B68C2D"/>
<path d="M50.3342 13.7702L48.8758 4.14445L49.7908 4.0058L53.4928 9.98508L52.5241 3.59168L53.6411 3.42242L55.0996 13.0482L54.2439 13.1778L50.4794 7.02569L51.4751 13.5974L50.3342 13.7702Z" fill="#B68C2D"/>
<path d="M58.6102 12.9796C58.0504 12.9992 57.5784 12.8957 57.194 12.669C56.8177 12.442 56.5262 12.1199 56.3194 11.7027C56.1125 11.2856 55.9833 10.7977 55.9317 10.239L57.1199 9.87299C57.156 10.216 57.2196 10.5461 57.3108 10.8632C57.41 11.18 57.5593 11.439 57.7585 11.6402C57.9575 11.8334 58.2289 11.924 58.5728 11.9119C58.9247 11.8996 59.1852 11.7943 59.3544 11.5962C59.5314 11.3898 59.6134 11.1027 59.6004 10.7348C59.585 10.2949 59.4727 9.94656 59.2635 9.68966C59.054 9.42476 58.7925 9.16168 58.4791 8.90043L56.7971 7.51813C56.4674 7.24945 56.2208 6.95382 56.0573 6.63125C55.8936 6.30069 55.8031 5.89148 55.786 5.40363C55.761 4.69185 55.9456 4.13286 56.3397 3.72667C56.7338 3.32048 57.2828 3.10503 57.9866 3.08033C58.3705 3.06686 58.7082 3.10705 58.9997 3.20092C59.299 3.2865 59.5483 3.42989 59.7475 3.63109C59.9547 3.83201 60.12 4.09046 60.2432 4.40643C60.3741 4.71413 60.4669 5.07921 60.5218 5.50167L59.3811 5.85399C59.3459 5.53493 59.2877 5.24471 59.2064 4.98331C59.1249 4.71392 58.9894 4.50248 58.7998 4.34899C58.618 4.18721 58.3591 4.11222 58.0232 4.12401C57.6873 4.1358 57.4266 4.23703 57.2411 4.42771C57.0634 4.61011 56.9806 4.87726 56.993 5.22915C57.0034 5.52506 57.0599 5.7673 57.1626 5.95587C57.2733 6.14417 57.4442 6.33435 57.6751 6.52643L59.3691 7.90831C59.7482 8.2153 60.0856 8.58781 60.3812 9.02585C60.6766 9.45589 60.8349 9.97482 60.8563 10.5826C60.8731 11.0625 60.7877 11.4819 60.6002 11.8408C60.4123 12.1917 60.1456 12.4653 59.8002 12.6616C59.4628 12.8576 59.0661 12.9636 58.6102 12.9796Z" fill="#B68C2D"/>
<path d="M61.6826 12.8519L62.3558 3.15223L66.1159 3.41319L66.0461 4.41908L63.6391 4.25203L63.4164 7.4613L65.3683 7.59677L65.3018 8.55476L63.3499 8.4193L63.1031 11.9758L65.534 12.1445L65.4667 13.1145L61.6826 12.8519Z" fill="#B68C2D"/>
<path d="M67.3751 13.4208L68.8465 4.83121L67.2256 4.55357L67.3958 3.55973L71.9272 4.33593L71.757 5.32976L70.1834 5.06022L68.7121 13.6498L67.3751 13.4208Z" fill="#B68C2D"/>
<path d="M75.6302 15.5526C75.0981 15.3678 74.6929 15.0992 74.4149 14.747C74.1444 14.3975 73.9879 13.9896 73.9454 13.5233C73.9029 13.057 73.9589 12.5524 74.1133 12.0097L75.3606 12.0979C75.2699 12.4328 75.2097 12.7654 75.1801 13.0959C75.1581 13.4291 75.204 13.7262 75.3178 13.9872C75.4342 14.2406 75.6559 14.4241 75.9828 14.5377C76.3173 14.6539 76.5999 14.6498 76.8305 14.5255C77.0714 14.3961 77.2525 14.1566 77.374 13.8069C77.5193 13.3888 77.5404 13.0213 77.4375 12.7044C77.3372 12.3799 77.1876 12.0382 76.9885 11.6794L75.9129 9.77223C75.7013 9.40051 75.5773 9.03372 75.5412 8.67185C75.5076 8.30238 75.5714 7.88577 75.7325 7.42203C75.9675 6.74542 76.3436 6.2882 76.8607 6.05036C77.3778 5.81253 77.9709 5.80981 78.6399 6.0422C79.0048 6.16896 79.307 6.32929 79.5463 6.52319C79.7959 6.71213 79.9776 6.93712 80.0914 7.19816C80.2128 7.46184 80.2739 7.76421 80.2747 8.10528C80.2857 8.44138 80.2403 8.8175 80.1383 9.23362L78.9406 9.14984C79.0234 8.83782 79.0742 8.54449 79.0929 8.26985C79.1143 7.9876 79.064 7.74008 78.9419 7.5273C78.8301 7.30955 78.6146 7.14522 78.2953 7.03431C77.976 6.92339 77.6947 6.92367 77.4516 7.03515C77.2186 7.14166 77.044 7.36217 76.9278 7.69667C76.8301 7.97796 76.7952 8.22567 76.823 8.43982C76.8585 8.65661 76.9496 8.897 77.0965 9.161L78.1834 11.0721C78.4275 11.4977 78.6086 11.9695 78.7268 12.4877C78.8477 12.9983 78.8077 13.5424 78.607 14.1202C78.4486 14.5763 78.2162 14.9387 77.91 15.2071C77.6064 15.468 77.2569 15.6278 76.8617 15.6864C76.4741 15.7477 76.0636 15.7031 75.6302 15.5526Z" fill="#B68C2D"/>
<path d="M80.654 17.7018C80.0634 17.4131 79.648 17.0673 79.4078 16.6642C79.1676 16.2612 79.0757 15.8103 79.1322 15.3114C79.1922 14.8054 79.3631 14.2642 79.6447 13.6881L81.2662 10.3714C81.5479 9.79525 81.8647 9.33887 82.2167 9.00229C82.5793 8.66202 82.9863 8.46836 83.4377 8.42131C83.8997 8.37057 84.4261 8.48957 85.0166 8.7783C85.6072 9.06703 86.0208 9.40753 86.2573 9.79981C86.4939 10.1921 86.5874 10.6305 86.538 11.1149C86.4957 11.6029 86.3338 12.135 86.0521 12.7112L84.4253 16.0386C84.1472 16.6076 83.825 17.0658 83.4588 17.4133C83.0998 17.7643 82.6894 17.9741 82.2275 18.0428C81.7691 18.1042 81.2446 17.9906 80.654 17.7018ZM81.1241 16.7403C81.4482 16.8988 81.7247 16.9537 81.9538 16.905C82.1863 16.8492 82.3895 16.7165 82.5633 16.507C82.7407 16.2903 82.9085 16.0199 83.067 15.6958L84.942 11.8606C85.1004 11.5365 85.2072 11.2451 85.2622 10.9865C85.3208 10.7207 85.2972 10.486 85.1914 10.2826C85.0891 10.072 84.876 9.88744 84.5519 9.72899C84.2278 9.57054 83.9476 9.51389 83.7114 9.55902C83.4858 9.60047 83.2862 9.72595 83.1124 9.93546C82.9421 10.1378 82.7777 10.401 82.6193 10.7251L80.7443 14.5602C80.5858 14.8843 80.4756 15.1829 80.4135 15.456C80.3549 15.7218 80.375 15.9636 80.4737 16.1815C80.5832 16.3956 80.8 16.5819 81.1241 16.7403Z" fill="#B68C2D"/>
<path d="M83.9037 19.2248L89.2514 11.0575L90.8949 12.1336C91.4394 12.4901 91.8414 12.8589 92.1008 13.2401C92.3647 13.6145 92.475 14.0181 92.4318 14.4508C92.3997 14.8812 92.2142 15.3551 91.8753 15.8727C91.6684 16.1887 91.4455 16.4557 91.2067 16.6739C90.9722 16.8853 90.7216 17.0333 90.4549 17.118C90.1925 17.196 89.914 17.196 89.6192 17.1183L88.0983 21.9712L86.9992 21.2516L88.4392 16.7202L87.5519 16.1392L85.0431 19.9708L83.9037 19.2248ZM88.0867 15.3225L88.5202 15.6064C88.8429 15.8177 89.1315 15.949 89.3859 16.0003C89.6404 16.0517 89.8785 16.0108 90.1003 15.8774C90.322 15.7441 90.5473 15.5027 90.7762 15.1531C91.0887 14.6759 91.2258 14.2758 91.1875 13.953C91.1535 13.6235 90.8778 13.2892 90.3602 12.9503L89.856 12.6202L88.0867 15.3225Z" fill="#B68C2D"/>
<path d="M88.7964 22.6247L94.998 15.1363L97.9009 17.5403L97.2578 18.3169L95.3996 16.778L93.3477 19.2557L94.8546 20.5036L94.2421 21.2432L92.7352 19.9953L90.4613 22.741L92.338 24.2953L91.7178 25.0441L88.7964 22.6247Z" fill="#B68C2D"/>
<path d="M92.3139 25.5818L99.3151 18.835L99.9565 19.5006L97.2221 25.9698L101.872 21.4885L102.655 22.301L95.654 29.0479L95.0543 28.4255L97.8934 21.8054L93.1136 26.4116L92.3139 25.5818Z" fill="#B68C2D"/>
<path d="M97.0801 30.8662L104.003 25.5731L103.004 24.2667L103.805 23.6542L106.598 27.3065L105.797 27.9189L104.827 26.6506L97.904 31.9437L97.0801 30.8662Z" fill="#B68C2D"/>
<path d="M100.469 36.0224C100.135 35.458 99.9775 34.942 99.9977 34.4741C100.018 34.0063 100.188 33.5797 100.509 33.1944C100.836 32.805 101.275 32.4471 101.825 32.1206L104.995 30.2411C105.545 29.9146 106.059 29.7073 106.537 29.6192C107.026 29.5339 107.472 29.5952 107.874 29.8031C108.288 30.0138 108.662 30.4014 108.996 30.9657C109.331 31.53 109.49 32.0406 109.472 32.4975C109.455 32.9543 109.293 33.3714 108.986 33.7485C108.684 34.1325 108.257 34.4878 107.707 34.8143L104.527 36.6999C103.983 37.0223 103.464 37.2282 102.968 37.3176C102.476 37.4138 102.019 37.3641 101.596 37.1685C101.179 36.9687 100.804 36.5867 100.469 36.0224ZM101.388 35.4775C101.572 35.7872 101.772 35.9845 101.99 36.0693C102.215 36.15 102.457 36.1506 102.717 36.071C102.983 35.9873 103.272 35.8536 103.581 35.6699L107.246 33.4967C107.556 33.313 107.804 33.1284 107.992 32.9427C108.186 32.753 108.295 32.5443 108.318 32.3166C108.348 32.0848 108.272 31.8141 108.088 31.5044C107.904 31.1947 107.701 30.994 107.48 30.9023C107.269 30.8134 107.033 30.8088 106.774 30.8884C106.521 30.9639 106.24 31.0935 105.93 31.2772L102.265 33.4505C101.955 33.6341 101.7 33.8228 101.499 34.0167C101.304 34.2064 101.188 34.4192 101.152 34.655C101.126 34.8937 101.204 35.1678 101.388 35.4775Z" fill="#B68C2D"/>
<path d="M103.389 41.3644L112.5 37.9689L113.183 39.8023C113.409 40.4097 113.514 40.9428 113.497 41.4017C113.488 41.8578 113.338 42.2467 113.048 42.5683C112.768 42.8946 112.34 43.1654 111.762 43.3806C111.41 43.5119 111.073 43.5946 110.753 43.6286C110.44 43.6598 110.152 43.6307 109.888 43.5411C109.631 43.4488 109.408 43.2845 109.217 43.0481L105.133 46.0435L104.676 44.8175L108.506 42.0323L108.137 41.0424L103.862 42.6354L103.389 41.3644ZM109.048 40.7029L109.228 41.1866C109.362 41.5465 109.516 41.8222 109.69 42.0136C109.864 42.205 110.079 42.3127 110.336 42.3366C110.592 42.3606 110.915 42.2999 111.305 42.1545C111.838 41.9561 112.184 41.7161 112.344 41.4345C112.511 41.1501 112.487 40.7192 112.272 40.1418L112.062 39.5794L109.048 40.7029Z" fill="#B68C2D"/>
<path d="M105.354 46.9817L114.785 44.6482L115.69 48.3043L114.712 48.5462L114.133 46.2059L111.012 46.978L111.482 48.8759L110.55 49.1063L110.081 47.2084L106.623 48.0641L107.207 50.4277L106.264 50.6611L105.354 46.9817Z" fill="#B68C2D"/>
<path d="M106.642 53.7613C106.564 53.2068 106.617 52.7265 106.802 52.3205C106.988 51.9225 107.278 51.5987 107.671 51.3492C108.064 51.0997 108.536 50.9198 109.086 50.8097L109.575 51.9527C109.237 52.0247 108.916 52.1227 108.61 52.2467C108.305 52.3787 108.064 52.5543 107.885 52.7735C107.713 52.9917 107.652 53.2711 107.7 53.6118C107.749 53.9603 107.881 54.2083 108.096 54.3557C108.32 54.51 108.614 54.5613 108.979 54.5098C109.414 54.4481 109.749 54.2998 109.982 54.0648C110.224 53.8286 110.458 53.541 110.685 53.2018L111.882 51.384C112.114 51.0279 112.382 50.7516 112.686 50.5551C112.997 50.3576 113.395 50.2246 113.878 50.1563C114.583 50.0565 115.158 50.1813 115.604 50.5304C116.049 50.8796 116.321 51.4027 116.42 52.0999C116.473 52.4802 116.469 52.8202 116.406 53.12C116.353 53.4265 116.236 53.6895 116.057 53.9087C115.879 54.1359 115.64 54.3274 115.338 54.4831C115.046 54.6456 114.693 54.7764 114.279 54.8754L113.808 53.7782C114.122 53.7097 114.404 53.6212 114.656 53.513C114.915 53.4036 115.111 53.2466 115.244 53.0419C115.385 52.8441 115.433 52.5788 115.386 52.2461C115.339 51.9134 115.211 51.6648 115.002 51.5004C114.801 51.3429 114.527 51.2887 114.179 51.338C113.885 51.3795 113.651 51.4612 113.474 51.5831C113.298 51.713 113.127 51.9029 112.96 52.1527L111.765 53.9824C111.499 54.3917 111.164 54.7663 110.76 55.1063C110.363 55.4452 109.864 55.6573 109.262 55.7424C108.787 55.8096 108.361 55.7689 107.984 55.6201C107.615 55.4702 107.315 55.2339 107.084 54.911C106.853 54.5961 106.706 54.2129 106.642 53.7613Z" fill="#B68C2D"/>
<path d="M108.099 57.5022L116.868 58.1475L116.813 56.3607L117.788 56.4304L117.937 61.2636L116.961 61.1939L116.908 59.4598L108.139 58.8086L108.099 57.5022Z" fill="#B68C2D"/>
<path d="M108.235 60.6052L117.705 64.3918L117.613 65.6604L107.844 66.0128L107.935 64.7617L110.409 64.7524L110.554 62.7472L108.145 61.8504L108.235 60.6052ZM111.47 63.0837L111.35 64.7498L115.837 64.7035L111.47 63.0837Z" fill="#B68C2D"/>
<path d="M107.178 69.1581C107.279 68.6522 107.438 68.2516 107.656 67.9562C107.877 67.6655 108.146 67.4758 108.462 67.3873C108.775 67.2941 109.135 67.2679 109.541 67.3087C109.698 67.3239 109.858 67.3478 110.023 67.3805C110.291 67.4338 110.573 67.5115 110.867 67.6138L117.115 69.5534L116.873 70.7722L110.568 68.8212C110.333 68.7387 110.108 68.6762 109.894 68.6336C109.836 68.6222 109.778 68.6127 109.72 68.6051C109.453 68.5641 109.214 68.5545 109.003 68.5762C108.795 68.5987 108.617 68.6829 108.469 68.8287C108.323 68.9791 108.223 69.1923 108.168 69.4682C108.125 69.6867 108.125 69.8859 108.169 70.0659C108.212 70.2498 108.285 70.4056 108.387 70.5335C108.488 70.6651 108.63 70.7868 108.811 70.8984C108.995 71.0146 109.181 71.1113 109.368 71.1885C109.56 71.2664 109.787 71.3453 110.05 71.4254L116.355 73.3822L116.111 74.6068L109.864 72.6671C109.458 72.5428 109.106 72.4111 108.807 72.272C108.508 72.133 108.23 71.9644 107.975 71.7663C107.723 71.5689 107.528 71.3489 107.389 71.1062C107.253 70.868 107.164 70.5835 107.122 70.2525C107.08 69.9253 107.098 69.5605 107.178 69.1581Z" fill="#B68C2D"/>
<path d="M105.461 72.8792L114.698 75.9906L114.072 77.8494C113.864 78.4652 113.609 78.9463 113.306 79.2929C113.011 79.6421 112.649 79.8502 112.22 79.9174C111.796 79.9947 111.291 79.9347 110.706 79.7375C110.349 79.6172 110.035 79.4691 109.764 79.2932C109.5 79.1198 109.294 78.915 109.145 78.6786C109.004 78.4448 108.934 78.1756 108.935 77.8712L103.863 77.6231L104.282 76.3801L109.022 76.631L109.36 75.6275L105.027 74.1678L105.461 72.8792ZM110.284 75.9386L110.119 76.429C109.996 76.7939 109.942 77.1057 109.956 77.3645C109.971 77.6233 110.07 77.8431 110.255 78.0238C110.439 78.2045 110.729 78.3614 111.125 78.4946C111.664 78.6764 112.085 78.7082 112.388 78.5899C112.698 78.4742 112.951 78.1236 113.148 77.5382L113.34 76.9681L110.284 75.9386Z" fill="#B68C2D"/>
<path d="M104.706 78.1553L112.132 85.1464L111.582 86.2934L102.363 83.0442L102.905 81.9132L105.211 82.8106L106.08 80.9978L104.167 79.2811L104.706 78.1553ZM106.809 81.6462L106.087 83.1526L110.28 84.7526L106.809 81.6462Z" fill="#B68C2D"/>
<path d="M102.008 83.6998L109.643 89.7973L109.157 90.5576L102.499 88.7943L107.653 92.9074L107.059 93.8355L99.4238 87.738L99.8819 87.0222L106.703 88.8686L101.411 84.6328L102.008 83.6998Z" fill="#B68C2D"/>
<path d="M98.0075 89.6504L104.252 95.8729L105.379 94.4785L106.075 95.1692L103.028 98.9409L102.332 98.2502L103.425 96.897L97.184 90.6699L98.0075 89.6504Z" fill="#B68C2D"/>
</g>
<defs>
<clipPath id="clip0_0_6266">
<rect width="120" height="120.005" fill="white"/>
</clipPath>
</defs>
</svg>
