<svg width="38" height="38" viewBox="0 0 38 38" fill="none" xmlns="http://www.w3.org/2000/svg">
<path d="M21.4563 15.3251C21.4848 14.9067 21.5388 14.4905 21.6179 14.0786C21.6855 13.728 21.7718 13.3812 21.8764 13.0398C21.9851 12.6075 22.1399 12.188 22.3381 11.7887C22.6354 11.2024 23.0252 10.6677 23.4923 10.2051C24.5227 9.17609 25.8792 8.53785 27.3289 8.39994H27.4581C28.319 8.31475 29.1529 8.05261 29.9076 7.62995C30.6624 7.20729 31.3216 6.63324 31.8441 5.9438C31.5568 6.99787 31.1639 8.02028 30.6714 8.99551C30.4914 9.35562 30.2975 9.70188 30.0851 10.0528C29.8727 10.4036 29.6973 10.6668 29.4895 10.9761C28.9415 11.7628 28.3234 12.4984 27.6428 13.1737C27.2302 13.5891 26.7956 13.9821 26.3409 14.351C27.2031 14.192 28.0411 13.9219 28.8339 13.5477C27.3153 15.0412 25.36 16.0115 23.2522 16.3178C23.0352 16.3501 22.8182 16.3685 22.6013 16.3916C22.5755 15.5365 22.7261 14.6853 23.0439 13.8909C23.3616 13.0966 23.8396 12.3763 24.448 11.7748C24.6831 11.5382 24.938 11.3219 25.2097 11.1285C24.4291 11.4445 23.7208 11.9157 23.1276 12.5135C22.6374 13.0008 22.2332 13.5674 21.9318 14.1894C21.8494 14.3533 21.7754 14.5212 21.7102 14.6926C21.614 14.8987 21.5293 15.1098 21.4563 15.3251ZM6.17928 32.1165C6.35458 31.8862 6.54425 31.6672 6.74715 31.4609C7.77285 30.4339 9.12483 29.7971 10.5699 29.6603H10.6714C11.7149 29.5556 12.7154 29.1904 13.5809 28.5983C14.4465 28.0062 15.1495 27.2062 15.6253 26.2716C15.8255 25.8731 15.9803 25.4534 16.0869 25.0204C16.1937 24.6796 16.28 24.3328 16.3455 23.9817C16.4246 23.5698 16.4785 23.1535 16.5071 22.7351C16.4471 22.9567 16.3732 23.1968 16.2947 23.3999C16.2303 23.5732 16.1564 23.7428 16.0731 23.9078C15.77 24.5274 15.3659 25.0922 14.8773 25.5791C14.281 26.1752 13.5715 26.6462 12.7905 26.9641C13.0619 26.7665 13.3181 26.5489 13.5569 26.3131C14.2853 25.5857 14.8229 24.6897 15.122 23.7046C15.3171 23.0537 15.4059 22.3756 15.3852 21.6963C15.1728 21.6963 14.9512 21.7379 14.7342 21.7702C12.6277 22.0765 10.6739 23.0469 9.15712 24.5403C9.94798 24.161 10.7867 23.8907 11.6502 23.737C11.1919 24.1017 10.7556 24.4933 10.3436 24.9096C9.66409 25.5859 9.04608 26.3214 8.49691 27.1072C8.28454 27.4073 8.08602 27.712 7.89673 28.0306C7.70744 28.3492 7.49045 28.7277 7.3104 29.0832C6.81911 30.0606 6.42628 31.0844 6.13773 32.1396L6.17928 32.1165ZM5.9115 6.20234C6.60148 6.7253 7.17585 7.3853 7.59853 8.14088C8.02121 8.89646 8.28307 9.73129 8.36764 10.5929C8.36536 10.6252 8.36536 10.6576 8.36764 10.6899C8.50477 12.1294 9.14185 13.4754 10.1682 14.4941C10.9504 15.281 11.9293 15.8438 13.0029 16.1239C13.3444 16.2269 13.6912 16.3117 14.0417 16.3778C14.4551 16.4569 14.8729 16.5108 15.2929 16.5394C15.0657 16.4819 14.8422 16.411 14.6234 16.327C14.452 16.2618 14.284 16.1878 14.1202 16.1054C12.7335 15.4242 11.6469 14.2554 11.0685 12.8228C11.2661 13.0942 11.4837 13.3504 11.7194 13.5892C12.4469 14.3176 13.3429 14.8552 14.3279 15.1543C14.9784 15.3519 15.6569 15.4408 16.3363 15.4175C16.3363 15.2051 16.2947 14.9835 16.2624 14.7711C15.9571 12.663 14.9866 10.7075 13.4923 9.18941C13.8674 9.98196 14.1374 10.8201 14.2956 11.6825C13.9281 11.2252 13.5351 10.7889 13.1183 10.3759C12.4437 9.69638 11.7098 9.07836 10.9254 8.52921C10.6253 8.31684 10.3159 8.11832 10.002 7.92903C9.68805 7.73974 9.30486 7.52737 8.94475 7.34269C7.96931 6.85068 6.94695 6.45782 5.89304 6.17002L5.9115 6.20234ZM23.6631 22.869C23.0125 22.6723 22.3343 22.5818 21.6548 22.6012C21.6548 22.8182 21.6964 23.0352 21.7287 23.2522C22.034 25.3603 23.0045 27.3159 24.4988 28.8339C24.1237 28.0414 23.8536 27.2033 23.6954 26.3408C24.0638 26.796 24.4552 27.2321 24.8681 27.6474C25.5444 28.327 26.2798 28.945 27.0657 29.4941C27.3658 29.7065 27.6705 29.905 27.9891 30.0943C28.3076 30.2836 28.6862 30.496 29.0417 30.676C30.0181 31.1708 31.0421 31.5652 32.098 31.8533C31.8678 31.678 31.6488 31.4883 31.4424 31.2854C30.4164 30.2591 29.7798 28.9074 29.6419 27.4627C29.6419 27.4304 29.6419 27.3935 29.6419 27.3612C29.5158 26.09 29.0036 24.888 28.1741 23.9165C27.3446 22.9451 26.2377 22.2509 25.002 21.9272C24.6619 21.8246 24.3167 21.7399 23.9678 21.6733C23.5548 21.5919 23.1368 21.5379 22.7167 21.5117C22.9425 21.5685 23.1645 21.6394 23.3815 21.724C23.5548 21.7884 23.7243 21.8624 23.8893 21.9456C25.2747 22.6264 26.361 23.7932 26.9411 25.2236C26.7446 24.9528 26.5269 24.6981 26.2901 24.4618C25.564 23.7111 24.6606 23.1554 23.6631 22.8459V22.869ZM0.680664 19.2125C0.966825 19.1737 1.25523 19.1536 1.54401 19.1525C2.99474 19.1505 4.40065 19.6551 5.51908 20.5791L5.59294 20.6437C6.70981 21.563 8.11222 22.0642 9.55878 22.0611C10.6672 22.058 11.7551 21.7617 12.7121 21.2023C13.0305 21.0377 13.3388 20.8542 13.6354 20.6529C13.9836 20.417 14.3167 20.1595 14.6326 19.8819C14.4317 20.0009 14.2235 20.1073 14.0094 20.2005C13.8432 20.2744 13.6724 20.3436 13.4969 20.4036C12.0352 20.9033 10.4405 20.8458 9.01861 20.242C9.3485 20.2939 9.68191 20.3202 10.0158 20.3205C11.0445 20.3214 12.0576 20.0693 12.966 19.5865C13.5646 19.2629 14.1084 18.8469 14.5772 18.3538C14.411 18.2107 14.2402 18.0768 14.0648 17.9429C12.3592 16.67 10.2926 15.9731 8.1645 15.953C8.98181 16.2516 9.75757 16.6534 10.4729 17.1488C9.8901 17.0877 9.30452 17.0569 8.71852 17.0565C7.76052 17.057 6.80436 17.1405 5.86072 17.3058C5.50061 17.3704 5.1405 17.4443 4.785 17.532C4.42951 17.6197 4.00938 17.7397 3.62619 17.8644C2.60256 18.2066 1.61579 18.6505 0.680664 19.1894V19.2125ZM23.9724 17.8275C24.1433 17.7536 24.3141 17.6843 24.4895 17.6243C25.9512 17.1246 27.5459 17.1822 28.9678 17.7859C28.6379 17.734 28.3045 17.7078 27.9706 17.7074C27.1158 17.7062 26.2699 17.8805 25.4853 18.2196C24.7006 18.5587 23.994 19.0554 23.4092 19.6788C23.5754 19.8173 23.7462 19.9512 23.9217 20.0851C25.6262 21.36 27.6934 22.0571 29.8219 22.0749C28.9954 21.7811 28.2114 21.379 27.4905 20.8792C28.0733 20.9403 28.6588 20.9712 29.2448 20.9715C30.2029 20.973 31.1593 20.8896 32.1026 20.7222C32.4627 20.6622 32.8182 20.5837 33.1737 20.496C33.5292 20.4083 33.954 20.2882 34.3326 20.1636C35.3723 19.823 36.3747 19.3775 37.3242 18.8339C37.0383 18.8751 36.7498 18.8951 36.4609 18.8939C35.01 18.8967 33.6039 18.392 32.4858 17.4673L32.412 17.4027C31.5992 16.74 30.6335 16.2914 29.6028 16.0978C28.5722 15.9043 27.5095 15.972 26.5117 16.2947C26.0867 16.433 25.678 16.6173 25.2928 16.8441C24.9744 17.0087 24.6661 17.1922 24.3695 17.3935C24.0213 17.6294 23.6882 17.8869 23.3723 18.1645C23.5656 18.0336 23.766 17.9134 23.9724 17.8044V17.8275ZM17.1442 27.5227C17.0807 28.1054 17.0499 28.6911 17.0519 29.2771C17.0503 30.2352 17.1337 31.1916 17.3012 32.1349C17.3612 32.495 17.4397 32.8505 17.5274 33.206C17.6151 33.5615 17.7351 33.9863 17.8598 34.3649C18.2012 35.4043 18.6467 36.4066 19.1894 37.3565C19.1485 37.0706 19.1284 36.7821 19.1294 36.4932C19.1272 35.041 19.6317 33.6336 20.556 32.5135C20.5762 32.4862 20.5977 32.46 20.6206 32.435C21.2834 31.6223 21.732 30.6565 21.9255 29.6259C22.1191 28.5952 22.0514 27.5325 21.7287 26.5348C21.5921 26.1091 21.4078 25.7002 21.1793 25.3159C21.0134 24.9982 20.83 24.6899 20.6299 24.3926C20.3929 24.0452 20.1354 23.7122 19.8589 23.3953C19.9758 23.5985 20.082 23.8062 20.1774 24.0186C20.2513 24.1848 20.3206 24.3602 20.3806 24.5357C20.8802 25.9974 20.8227 27.5921 20.219 29.014C20.2711 28.6826 20.2973 28.3476 20.2975 28.0121C20.2981 27.1581 20.1234 26.3131 19.7843 25.5293C19.4453 24.7455 18.9489 24.0396 18.3261 23.4553C18.1876 23.6215 18.0537 23.7924 17.9198 23.9632C16.6454 25.6698 15.9484 27.7383 15.93 29.8681C16.2242 29.0238 16.6328 28.2238 17.1442 27.4904V27.5227ZM18.8155 0.708343C18.8542 0.99452 18.8742 1.28291 18.8755 1.57169C18.878 3.02471 18.3716 4.43275 17.4443 5.55137L17.375 5.62986C16.7123 6.44167 16.2637 7.40664 16.0701 8.43657C15.8766 9.46649 15.9442 10.5285 16.267 11.5255C16.4064 11.9516 16.5906 12.3617 16.8164 12.749C16.982 13.0678 17.167 13.3762 17.3704 13.6723C17.606 14.0208 17.8635 14.3538 18.1414 14.6696C18.0209 14.4687 17.913 14.2605 17.8182 14.0463C17.7444 13.8801 17.6797 13.7093 17.6151 13.5338C17.1216 12.0697 17.1791 10.4758 17.7767 9.05091C17.7248 9.38234 17.6986 9.71729 17.6982 10.0528C17.6976 10.9068 17.8722 11.7518 18.2113 12.5356C18.5504 13.3194 19.0467 14.0253 19.6696 14.6095C19.8127 14.4433 19.9466 14.2771 20.0759 14.1017C21.3493 12.3964 22.0463 10.3297 22.0657 8.20142C21.7694 9.01968 21.3674 9.79572 20.8699 10.5098C20.9335 9.92721 20.9643 9.34149 20.9623 8.75543C20.963 7.79757 20.8812 6.84143 20.7176 5.89763C20.653 5.53752 20.5745 5.18203 20.4868 4.82654C20.399 4.47104 20.279 4.04629 20.1544 3.66772C19.8086 2.62847 19.3601 1.62628 18.8155 0.676025V0.708343Z" fill="url(#paint0_linear_0_6323)"/>
<defs>
<linearGradient id="paint0_linear_0_6323" x1="19.0001" y1="0.962267" x2="19.0001" y2="37.6059" gradientUnits="userSpaceOnUse">
<stop stop-color="#EE4224"/>
<stop offset="0.06" stop-color="#E55025"/>
<stop offset="0.25" stop-color="#D56A27"/>
<stop offset="0.44" stop-color="#C87929"/>
<stop offset="0.63" stop-color="#BF822B"/>
<stop offset="0.82" stop-color="#BA882C"/>
<stop offset="1" stop-color="#B88A2D"/>
</linearGradient>
</defs>
</svg>
