<svg width="44" height="44" viewBox="0 0 44 44" fill="none" xmlns="http://www.w3.org/2000/svg">
<path d="M24.6692 17.4096C24.701 16.9139 24.7649 16.4208 24.8605 15.9333C24.9396 15.5162 25.0413 15.1037 25.1654 14.6977C25.2994 14.1823 25.4886 13.683 25.7298 13.2084V13.2084C26.2961 12.0953 27.1316 11.1422 28.1599 10.4361C29.1882 9.73008 30.3766 9.2936 31.6165 9.16655H31.6392H31.7592C33.4762 9.00414 35.0824 8.24496 36.2999 7.02042C36.5426 6.77279 36.768 6.50879 36.9746 6.23026V6.23026C36.6305 7.48674 36.1622 8.70566 35.5767 9.86892C35.3626 10.2916 35.1323 10.7111 34.8858 11.1208C34.6393 11.5305 34.4253 11.8557 34.1755 12.2166C33.5219 13.1454 32.7894 14.0157 31.9862 14.818C31.4928 15.3107 30.9743 15.7774 30.4327 16.2162C31.4607 16.0376 32.4607 15.7238 33.4068 15.283C31.6005 17.0583 29.2753 18.2079 26.7709 18.564C26.5147 18.603 26.2584 18.6323 25.999 18.6518C25.9697 17.6358 26.1473 16.6245 26.5209 15.6797C26.8946 14.7348 27.4564 13.8763 28.172 13.1564C28.4539 12.8747 28.7575 12.616 29.0802 12.3825C27.3803 13.072 25.9943 14.3666 25.1881 16.0179C25.0908 16.213 25.0032 16.4146 24.9254 16.6162C24.8263 16.876 24.7408 17.1409 24.6692 17.4096V17.4096ZM6.52893 37.3946C6.73592 37.1204 6.96132 36.8608 7.20355 36.6174C8.42107 35.3929 10.0273 34.6337 11.7443 34.4713V34.4713H11.8643H11.887C13.1281 34.3441 14.3176 33.9069 15.3466 33.1996C16.3756 32.4924 17.2112 31.5377 17.777 30.4229V30.4229C18.0177 29.9504 18.2069 29.4533 18.3413 28.9401C18.4654 28.5342 18.5672 28.1217 18.6462 27.7045C18.7422 27.2139 18.8062 26.7175 18.8376 26.2185C18.7681 26.48 18.6837 26.7373 18.5846 26.9891V26.9891C18.5067 27.1907 18.4192 27.3923 18.3219 27.5874C17.5157 29.2387 16.1297 30.5333 14.4298 31.2228C14.7525 30.9894 15.0561 30.7306 15.338 30.4489C16.0526 29.7308 16.6141 28.8745 16.9882 27.932C17.3623 26.9895 17.5413 25.9806 17.5143 24.9666C17.2548 24.9861 16.9986 25.0153 16.7423 25.0544C14.2384 25.4153 11.9147 26.5682 10.1096 28.3451C11.0506 27.8975 12.0462 27.5761 13.0708 27.3891C11.6434 28.5459 10.3837 29.8964 9.32797 31.4017C9.07823 31.7626 8.84146 32.1268 8.61767 32.4975C8.39387 32.8682 8.14089 33.3267 7.92683 33.7494C7.34091 34.9147 6.87262 36.1359 6.52893 37.3946V37.3946ZM6.20459 6.55218C6.47801 6.7597 6.737 6.98568 6.97976 7.22853C8.20116 8.44917 8.95841 10.0596 9.12039 11.7809V11.7809V11.9012V11.9207C9.2481 13.1648 9.68494 14.3569 10.3909 15.3879C11.0969 16.419 12.0496 17.256 13.1616 17.8226V17.8226C13.635 18.0643 14.1331 18.254 14.6471 18.3884C15.0521 18.5128 15.4635 18.6148 15.8796 18.694C16.369 18.7903 16.8641 18.8544 17.3618 18.8859C17.0934 18.8166 16.8292 18.7319 16.5704 18.6323V18.6323C16.3694 18.5542 16.1683 18.4664 15.9737 18.3689C14.3266 17.5606 13.0353 16.1711 12.3476 14.4668C12.5804 14.7903 12.8386 15.0947 13.1195 15.3773C13.8376 16.0958 14.6944 16.6599 15.6374 17.035C16.5805 17.4102 17.5899 17.5885 18.604 17.5592C18.5846 17.2991 18.5554 17.0422 18.5165 16.7853C18.1607 14.2756 17.014 11.9456 15.2439 10.1356C15.6903 11.0789 16.0109 12.0771 16.1975 13.1044C15.7605 12.5617 15.295 12.0429 14.8028 11.55C14.0035 10.7429 13.1353 10.0074 12.2081 9.35189C11.8481 9.10151 11.4848 8.86414 11.1151 8.63977C10.7453 8.4154 10.288 8.16177 9.86637 7.94716C8.70609 7.36014 7.49029 6.89066 6.23703 6.54568V6.54568L6.20459 6.55218ZM27.2866 26.3876C26.5147 26.1506 25.7096 26.0408 24.9027 26.0624C24.9222 26.3225 24.9513 26.5794 24.9903 26.8363C25.349 29.349 26.499 31.6811 28.2726 33.4925C27.8262 32.5492 27.5056 31.551 27.319 30.5237C27.7568 31.0667 28.2223 31.5866 28.7137 32.0813C29.5139 32.8865 30.382 33.6209 31.3084 34.2762C31.6684 34.5266 32.0316 34.7639 32.4014 34.9883C32.7711 35.2127 33.2285 35.4663 33.6501 35.6809C34.8171 36.2647 36.0395 36.7298 37.2989 37.0694C37.0254 36.8607 36.7665 36.6337 36.5237 36.3898C35.3023 35.1692 34.5451 33.5588 34.3831 31.8374V31.8374V31.7171V31.6976C34.2557 30.4539 33.8194 29.262 33.114 28.231C32.4085 27.2 31.4566 26.3627 30.3451 25.7958V25.7958C29.8738 25.5544 29.3779 25.3647 28.8661 25.23C28.4612 25.1056 28.0497 25.0035 27.6336 24.9243C27.1442 24.828 26.6491 24.7639 26.1514 24.7324C26.4195 24.8027 26.6837 24.8874 26.9428 24.9861V24.9861C27.1439 25.0641 27.345 25.1519 27.5396 25.2495C29.1866 26.0577 30.4779 27.4473 31.1657 29.1515C30.9328 28.828 30.6747 28.5236 30.3937 28.241C29.5271 27.374 28.4595 26.736 27.2866 26.3843V26.3876ZM0 22.0335C0.339728 21.9878 0.682134 21.965 1.02491 21.9652C2.74914 21.9624 4.42035 22.5627 5.75052 23.6626V23.6626C5.77827 23.6892 5.8075 23.7142 5.83809 23.7374V23.7374C6.80251 24.5262 7.94845 25.0604 9.17151 25.2916C10.3946 25.5228 11.6559 25.4434 12.8406 25.0609V25.0609C13.3468 24.8969 13.8339 24.6789 14.2936 24.4105C14.6666 24.2089 15.0298 23.9911 15.3801 23.7602C15.7926 23.4785 16.188 23.1723 16.564 22.8432C16.3243 22.9829 16.0774 23.1099 15.8245 23.2237V23.2237C15.6266 23.3115 15.4223 23.3927 15.2147 23.4643C13.4885 24.0539 11.6066 23.9891 9.92475 23.2822C10.3173 23.3449 10.7143 23.3764 11.1118 23.3765C12.3338 23.378 13.5372 23.0763 14.6147 22.4985C15.3316 22.1171 15.9822 21.6219 16.5413 21.032C16.3434 20.8629 16.1423 20.7068 15.9347 20.5475C13.9054 19.0258 11.4436 18.1951 8.90957 18.177C9.89056 18.5255 10.8209 19.0034 11.6762 19.598C10.9845 19.525 10.2895 19.4881 9.59393 19.4874C8.45653 19.4878 7.32134 19.5879 6.20135 19.7866C5.77322 19.8614 5.34834 19.9524 4.9267 20.0565C4.50506 20.1606 4.00558 20.3036 3.55475 20.45C2.31938 20.8557 1.12835 21.3863 0 22.0335H0ZM27.6563 20.3849C27.8542 20.2971 28.0585 20.2158 28.2661 20.1443C30.0014 19.5512 31.8937 19.6195 33.582 20.3361C33.1894 20.2733 32.7925 20.2418 32.3949 20.2418C31.1716 20.2454 29.9681 20.5526 28.8921 21.1361C28.1809 21.519 27.5359 22.0141 26.9817 22.6026C27.1795 22.7717 27.3806 22.9278 27.5882 23.0871C29.6131 24.6055 32.0687 25.436 34.5972 25.4576C33.6162 25.109 32.6858 24.6312 31.8306 24.0366C32.5223 24.1096 33.2173 24.1465 33.9128 24.1471C35.0484 24.1422 36.1814 24.0377 37.2989 23.835C37.7303 23.7569 38.1519 23.6659 38.5736 23.5618C38.9952 23.4578 39.4947 23.3147 39.9455 23.1684C41.185 22.7626 42.3804 22.232 43.5132 21.5848C43.1736 21.6316 42.8312 21.6555 42.4883 21.6563C40.7637 21.6582 39.0924 21.0568 37.7627 19.9557V19.9557C37.7339 19.929 37.7036 19.904 37.6719 19.8809V19.8809C36.7064 19.0834 35.5564 18.5422 34.3277 18.3069C33.0989 18.0717 31.8309 18.15 30.6402 18.5347C30.1354 18.6995 29.6494 18.9175 29.1904 19.185C28.8175 19.3866 28.4542 19.6045 28.1039 19.8354C27.691 20.1213 27.2957 20.4318 26.9201 20.7654C27.1587 20.6258 27.4045 20.4988 27.6563 20.3849V20.3849ZM19.5479 31.9122C19.475 32.6057 19.4382 33.3025 19.4376 33.9998C19.4383 35.1379 19.5381 36.2738 19.736 37.3946C19.8106 37.827 19.9014 38.2498 20.0052 38.6725C20.109 39.0952 20.2517 39.596 20.3976 40.048C20.8024 41.2906 21.3316 42.4891 21.9772 43.6248V43.6248C21.9316 43.2842 21.9088 42.9409 21.9091 42.5973C21.9062 40.8686 22.505 39.1931 23.6021 37.8596V37.8596C23.6287 37.8307 23.6536 37.8003 23.6767 37.7685V37.7685C24.4634 36.8016 24.9963 35.6527 25.2269 34.4265C25.4575 33.2003 25.3783 31.9358 24.9968 30.7481C24.8333 30.2406 24.6158 29.7522 24.3481 29.2913C24.147 28.9174 23.9297 28.5532 23.6994 28.202C23.4224 27.7798 23.1202 27.3748 22.7945 26.9891C22.9338 27.2294 23.0605 27.4769 23.174 27.7305V27.7305C23.2615 27.9289 23.3426 28.1337 23.414 28.3418C24.0056 30.0816 23.9375 31.9788 23.2226 33.6714C23.2853 33.2778 23.3168 32.8798 23.3167 32.4812C23.3182 31.2561 23.0173 30.0497 22.441 28.9694C22.059 28.2564 21.5651 27.6097 20.9782 27.0542C20.8095 27.2525 20.6539 27.4541 20.4949 27.6622C18.9804 29.6923 18.152 32.1542 18.1305 34.6892C18.4779 33.7045 18.9545 32.7707 19.5479 31.9122V31.9122ZM21.5296 0C21.5763 0.340526 21.6001 0.68381 21.6009 1.02754C21.6028 2.7566 21.0029 4.43214 19.9046 5.76527V5.76527C19.878 5.79414 19.8531 5.82454 19.83 5.85632V5.85632C19.0357 6.82357 18.4964 7.9754 18.2618 9.20605C18.0272 10.4367 18.1047 11.7067 18.4873 12.8995C18.6508 13.407 18.8683 13.8954 19.136 14.3563C19.337 14.7302 19.5544 15.0944 19.7846 15.4456C20.0656 15.8592 20.371 16.2555 20.6993 16.6325C20.56 16.3921 20.4333 16.1447 20.3198 15.8911V15.8911C20.2322 15.6927 20.1511 15.4879 20.0798 15.2797C19.4882 13.54 19.5563 11.6428 20.2711 9.95021C20.2086 10.3438 20.1771 10.7418 20.1771 11.1403C20.1846 12.3679 20.4955 13.5745 21.082 14.6522C21.4575 15.3697 21.946 16.022 22.5285 16.5837C22.6972 16.3853 22.8529 16.1837 23.0118 15.9756C24.5263 13.9456 25.3547 11.4837 25.3762 8.94868C25.0273 9.92654 24.5507 10.8537 23.9589 11.7061C24.0317 11.0126 24.0685 10.3158 24.0691 9.61853C24.0699 8.47831 23.9711 7.34021 23.774 6.21725C23.6962 5.78369 23.6053 5.35772 23.5016 4.93934C23.388 4.47434 23.2551 4.01585 23.1091 3.56387C22.7044 2.32533 22.1751 1.13124 21.5296 0V0Z" fill="url(#paint0_linear_1_4173)"/>
<defs>
<linearGradient id="paint0_linear_1_4173" x1="21.7534" y1="0.338177" x2="21.7534" y2="43.9565" gradientUnits="userSpaceOnUse">
<stop stop-color="#EE4224"/>
<stop offset="0.05" stop-color="#E94925"/>
<stop offset="0.29" stop-color="#D36528"/>
<stop offset="0.53" stop-color="#C47A2B"/>
<stop offset="0.77" stop-color="#BB862C"/>
<stop offset="1" stop-color="#B88A2D"/>
</linearGradient>
</defs>
</svg>
