<svg width="648" height="200" viewBox="0 0 648 200" fill="none" xmlns="http://www.w3.org/2000/svg">
<path d="M0.601562 197L20.9922 2.70312H67.6328C76.1484 2.70312 83.2969 3.91406 89.0781 6.33594C94.9375 8.75781 99.3906 12.3125 102.438 17C105.484 21.6094 107.516 26.9609 108.531 33.0547C109 36.2578 109.234 39.7734 109.234 43.6016C109.234 46.8828 109.039 50.3984 108.648 54.1484C107.867 61.3359 106.305 67.8984 103.961 73.8359C101.617 79.7734 98.4141 85.125 94.3516 89.8906C90.3672 94.6562 85.1719 98.3672 78.7656 101.023C72.4375 103.68 65.2109 105.008 57.0859 105.008H28.7266L19 197H0.601562ZM30.1328 91.4141H53.4531C65.4062 91.4141 74.2344 88.6797 79.9375 83.2109C85.6406 77.6641 89.1953 68.0156 90.6016 54.2656C90.9922 49.2656 91.1875 44.8516 91.1875 41.0234C91.1875 39.0703 91.1484 37.3125 91.0703 35.75C90.7578 30.8281 89.3906 26.9219 86.9688 24.0312C84.5469 21.1406 81.3828 19.1484 77.4766 18.0547C73.5703 16.8828 68.2969 16.2969 61.6562 16.2969H38.1016L30.1328 91.4141ZM152.617 197L173.008 2.70312H217.188C226.016 2.70312 233.438 3.83594 239.453 6.10156C245.547 8.28906 250.195 11.5703 253.398 15.9453C256.68 20.2422 258.828 25.3203 259.844 31.1797C260.391 34.4609 260.664 38.0938 260.664 42.0781C260.664 45.125 260.508 48.3672 260.195 51.8047C257.383 78.6016 246.758 93.875 228.32 97.625L248.008 197H229.961L211.445 101.492H181.094L171.016 197H152.617ZM182.5 88.0156H207.227C218.945 88.0156 227.383 85.1641 232.539 79.4609C237.773 73.6797 241.055 64.4609 242.383 51.8047C242.695 48.5234 242.852 45.5156 242.852 42.7812C242.852 34.8125 241.484 28.7969 238.75 24.7344C234.922 19.1875 227.109 16.4141 215.312 16.4141H190L182.5 88.0156ZM312.484 197L332.875 2.70312H350.922L330.531 197H312.484ZM445.867 199.461C438.211 199.461 431.57 198.445 425.945 196.414C420.32 194.383 415.906 191.531 412.703 187.859C409.578 184.109 407.117 179.695 405.32 174.617C403.523 169.539 402.586 163.953 402.508 157.859C402.508 157.156 402.508 156.414 402.508 155.633C402.508 150.242 402.742 144.539 403.211 138.523L411.297 61.2969C412.078 53.7969 413.211 47.1172 414.695 41.2578C416.258 35.3203 418.445 29.7734 421.258 24.6172C424.148 19.3828 427.586 15.0469 431.57 11.6094C435.633 8.17188 440.633 5.47656 446.57 3.52344C452.508 1.57031 459.266 0.59375 466.844 0.59375C475.359 0.59375 482.508 1.88281 488.289 4.46094C494.07 7.03906 498.406 10.7109 501.297 15.4766C504.266 20.2422 506.219 26.0625 507.156 32.9375C507.703 36.2188 507.977 39.7344 507.977 43.4844C507.977 47.3906 507.703 51.4922 507.156 55.7891L505.867 67.7422H488.523L489.695 56.375C490.164 51.5313 490.398 47.0781 490.398 43.0156C490.398 39.8906 490.281 37.0391 490.047 34.4609C489.422 28.3672 487.117 23.6406 483.133 20.2812C479.227 16.8438 473.328 15.125 465.438 15.125C460.281 15.125 455.789 15.8281 451.961 17.2344C448.133 18.6406 444.969 20.5547 442.469 22.9766C439.969 25.3203 437.859 28.4453 436.141 32.3516C434.422 36.1797 433.133 40.1641 432.273 44.3047C431.414 48.3672 430.672 53.25 430.047 58.9531L421.375 141.453C420.906 145.906 420.672 149.969 420.672 153.641C420.672 162.625 422 169.539 424.656 174.383C428.406 181.258 436.062 184.695 447.625 184.695C453.562 184.695 458.562 183.758 462.625 181.883C466.688 179.93 469.891 176.961 472.234 172.977C474.656 168.992 476.492 164.656 477.742 159.969C478.992 155.281 479.969 149.5 480.672 142.625L481.961 129.969H499.305L498.133 141.336C497.195 150.32 495.633 158.172 493.445 164.891C491.336 171.609 488.289 177.664 484.305 183.055C480.398 188.445 475.203 192.547 468.719 195.359C462.312 198.094 454.695 199.461 445.867 199.461ZM556.633 197L577.023 2.70312H647.219L645.812 16.7656H593.898L586.281 89.5391H628.703L627.297 103.133H584.875L576.438 183.289H628.938L627.414 197H556.633Z" fill="#0E1317"/>
</svg>
